<svg aria-hidden="true" style="position: absolute; width: 0; height: 0; overflow: hidden;" version="1.1" xmlns="http://www.w3.org/2000/svg" xmlns:xlink="http://www.w3.org/1999/xlink">
<defs>
<symbol id="icon-mute" viewBox="0 0 32 32">
<path d="M16.36 2.122c-0.396 0-0.739 0.145-1.028 0.434l-7.605 7.605h-5.984c-0.396 0-0.739 0.145-1.028 0.434s-0.434 0.632-0.434 1.028v8.769c0 0.396 0.145 0.739 0.434 1.028s0.632 0.434 1.028 0.434h5.984l7.605 7.605c0.29 0.289 0.632 0.434 1.028 0.434s0.739-0.145 1.028-0.434 0.434-0.632 0.434-1.028v-24.849c0-0.396-0.145-0.739-0.434-1.028s-0.632-0.434-1.028-0.434zM28.357 16.604l3.083-3.083c0.196-0.196 0.293-0.434 0.293-0.713s-0.098-0.517-0.293-0.713l-1.426-1.426c-0.196-0.196-0.434-0.293-0.713-0.293s-0.517 0.098-0.713 0.293l-3.083 3.083-3.083-3.083c-0.196-0.196-0.434-0.293-0.713-0.293s-0.517 0.098-0.713 0.293l-1.426 1.426c-0.196 0.196-0.293 0.434-0.293 0.713s0.098 0.517 0.293 0.713l3.083 3.083-3.083 3.083c-0.196 0.196-0.293 0.434-0.293 0.713s0.098 0.517 0.293 0.713l1.426 1.426c0.196 0.196 0.434 0.293 0.713 0.293s0.517-0.098 0.713-0.293l3.083-3.083 3.083 3.083c0.196 0.196 0.433 0.293 0.713 0.293s0.517-0.098 0.713-0.293l1.426-1.426c0.196-0.196 0.293-0.434 0.293-0.713s-0.098-0.517-0.293-0.713l-3.083-3.083z"></path>
</symbol>
<symbol id="icon-pause" viewBox="0 0 32 32">
<path d="M13.375 30.75v-29.506c0-0.549-0.443-0.992-1.001-0.992h-5.873c-0.558 0-1.001 0.443-1.001 0.992v29.506c0 0.549 0.443 1.001 1.001 1.001h5.873c0.558 0 1.001-0.443 1.001-1.001zM25.5 0.25h-5.873c-0.549 0-1.001 0.443-1.001 0.992v29.506c0 0.549 0.443 1.001 1.001 1.001h5.873c0.549 0 1.001-0.443 1.001-1.001v-29.506c0-0.549-0.443-0.992-1.001-0.992z"></path>
</symbol>
<symbol id="icon-play-btn" viewBox="0 0 32 32">
<path d="M14.137 2.501c-0.106 0.026-0.627 0.117-1.157 0.203-9.957 1.615-14.666 13.76-8.502 21.926 1.92 2.543 6.328 5.422 6.546 4.276 0.027-0.143-0.235-0.324-0.886-0.612-2.672-1.18-5.090-3.505-6.409-6.163-4.792-9.653 3.406-20.576 14.112-18.803 1.608 0.266 1.887-0.289 0.311-0.619-0.717-0.15-3.628-0.3-4.015-0.207zM14.201 5.347c-1.883 0.277-4.305 1.241-4.305 1.713 0 0.366 0.272 0.338 1.265-0.132 5.443-2.571 12.069 0.242 14.040 5.962 3.277 9.507-7.541 17.555-15.756 11.721-4.565-3.242-5.617-9.681-2.34-14.318 0.87-1.23 0.412-1.751-0.476-0.541-5.471 7.453 0.241 17.98 9.471 17.455 9.317-0.53 13.772-11.695 7.361-18.447-2.351-2.475-6.142-3.873-9.26-3.413zM25.403 7.025c-0.191 0.191-0.045 0.533 0.567 1.328 4.535 5.892 3.050 14.7-3.177 18.843-2.806 1.867-5.27 2.385-9.877 2.075-0.434-0.029-0.514 0.004-0.514 0.213 0 0.95 5.515 0.692 8.249-0.385 8.018-3.16 11.179-13.36 6.346-20.476-0.917-1.35-1.378-1.813-1.594-1.597zM11.747 11.837c-0.228 0.252-0.247 0.547-0.282 4.266-0.057 6.114-0.666 5.929 6.716 2.040 3.598-1.895 3.618-1.836-1.542-4.543-4.034-2.116-4.439-2.262-4.892-1.763zM16.205 14.15c3.92 2.047 3.94 2.060 3.666 2.287-0.307 0.255-7.297 3.868-7.483 3.868-0.149 0-0.179-0.672-0.179-4.048 0-2.84 0.042-4.048 0.14-4.048 0.077 0 1.812 0.873 3.856 1.941z"></path>
</symbol>
<symbol id="icon-play" viewBox="0 0 32 32">
<path d="M27.573 15.733l-23.84-15.733v31.456l23.84-15.723z"></path>
</symbol>
<symbol id="icon-volume" viewBox="0 0 32 32">
<path d="M15.996 2.622c-0.381 0-0.712 0.14-0.991 0.419l-7.332 7.332h-5.768c-0.382 0-0.712 0.14-0.991 0.419s-0.419 0.61-0.419 0.991v8.453c0 0.381 0.14 0.712 0.419 0.991s0.61 0.419 0.991 0.419h5.768l7.332 7.332c0.279 0.279 0.609 0.419 0.991 0.419s0.712-0.14 0.991-0.419 0.419-0.609 0.419-0.991v-23.954c0-0.381-0.14-0.712-0.418-0.991s-0.609-0.419-0.991-0.419zM24.924 19.124c0.624-0.961 0.936-1.999 0.936-3.116s-0.312-2.158-0.936-3.127c-0.624-0.969-1.449-1.652-2.477-2.048-0.15-0.070-0.326-0.111-0.511-0.111-0.014 0-0.028 0-0.041 0.001l0.002-0c-0.381 0-0.712 0.136-0.991 0.407-0.258 0.246-0.419 0.592-0.419 0.975 0 0.009 0 0.019 0 0.028l-0-0.001c0 0.308 0.088 0.569 0.265 0.781s0.388 0.396 0.638 0.55c0.249 0.154 0.499 0.323 0.748 0.507s0.462 0.444 0.638 0.781c0.176 0.338 0.264 0.756 0.264 1.255s-0.088 0.917-0.264 1.255c-0.176 0.338-0.388 0.598-0.638 0.781s-0.5 0.353-0.748 0.507c-0.25 0.154-0.462 0.338-0.638 0.55s-0.265 0.474-0.265 0.781c0 0.396 0.14 0.73 0.419 1.002 0.25 0.252 0.596 0.408 0.979 0.408 0.004 0 0.009-0 0.013-0h-0.001c0.22 0 0.404-0.036 0.55-0.11 1.028-0.412 1.853-1.098 2.477-2.060z"></path>
<path d="M29.624 22.229c1.248-1.9 1.872-3.974 1.872-6.221s-0.624-4.319-1.872-6.221c-1.248-1.9-2.9-3.284-4.954-4.15-0.17-0.069-0.366-0.109-0.572-0.11h-0.001c-0.381 0-0.712 0.14-0.991 0.419s-0.418 0.609-0.418 0.991c0 0.572 0.286 1.005 0.859 1.3 0.821 0.426 1.38 0.748 1.673 0.969 1.086 0.793 1.934 1.787 2.543 2.983s0.914 2.469 0.914 3.821c0 0.009 0 0.021 0 0.032 0 1.384-0.338 2.688-0.936 3.836l0.022-0.046c-0.617 1.204-1.476 2.204-2.52 2.967l-0.024 0.016c-0.293 0.22-0.852 0.543-1.673 0.969-0.572 0.294-0.859 0.726-0.859 1.3 0 0.381 0.14 0.712 0.418 0.991s0.616 0.419 1.012 0.419c0.176 0 0.36-0.037 0.55-0.11 2.054-0.867 3.707-2.25 4.954-4.151z"></path>
</symbol>
    <symbol id="fullscreen" viewBox="0 0 24 24">
        <path d="M0 0h24v24H0z" fill="none"></path>
        <path d="M7 14H5v5h5v-2H7v-3zm-2-4h2V7h3V5H5v5zm12 7h-3v2h5v-5h-2v3zM14 5v2h3v3h2V5h-5z"></path>
    </symbol>
    <symbol id="fullscreen-exit" viewBox="0 0 24 24" >
        <path d="M0 0h24v24H0z" fill="none"></path>
        <path d="M5 16h3v3h2v-5H5v2zm3-8H5v2h5V5H8v3zm6 11h2v-3h3v-2h-5v5zm2-11V5h-2v5h5V8h-3z"></path>
    </symbol>
    <symbol id="icon-rs_school_js" viewBox="0 0 86 32">
        <path fill="#000" style="fill: var(--color1, #000)" d="M44.485 10.599l4.099-0.265c0.094 0.67 0.265 1.169 0.546 1.528 0.452 0.561 1.075 0.842 1.902 0.842 0.608 0 1.091-0.14 1.418-0.436 0.312-0.234 0.499-0.608 0.499-0.998 0-0.374-0.171-0.733-0.468-0.966-0.312-0.281-1.044-0.561-2.198-0.811-1.886-0.421-3.242-0.982-4.037-1.699-0.795-0.67-1.247-1.652-1.216-2.697 0-0.717 0.218-1.434 0.623-2.026 0.468-0.67 1.107-1.2 1.87-1.496 0.826-0.359 1.98-0.546 3.429-0.546 1.777 0 3.133 0.327 4.068 0.998 0.935 0.655 1.496 1.715 1.668 3.164l-4.053 0.234c-0.109-0.623-0.327-1.075-0.686-1.372s-0.826-0.436-1.434-0.436c-0.499 0-0.873 0.109-1.122 0.312-0.234 0.187-0.39 0.468-0.374 0.779 0 0.234 0.125 0.452 0.312 0.592 0.203 0.187 0.686 0.359 1.45 0.514 1.886 0.405 3.227 0.811 4.053 1.231s1.418 0.935 1.777 1.543c0.374 0.623 0.561 1.34 0.546 2.073 0 0.873-0.249 1.746-0.748 2.478-0.514 0.764-1.231 1.356-2.073 1.715-0.888 0.39-2.011 0.592-3.351 0.592-2.369 0-4.006-0.452-4.925-1.372s-1.465-2.073-1.574-3.476zM0.982 15.213v-13.935h7.186c1.325 0 2.354 0.109 3.055 0.343 0.686 0.218 1.294 0.67 1.699 1.278 0.452 0.67 0.67 1.45 0.655 2.26 0.047 1.372-0.655 2.681-1.855 3.367-0.468 0.265-0.982 0.452-1.512 0.546 0.39 0.109 0.779 0.296 1.122 0.514 0.265 0.218 0.483 0.468 0.686 0.733 0.234 0.265 0.436 0.561 0.608 0.873l2.089 4.037h-4.894l-2.307-4.286c-0.296-0.546-0.546-0.904-0.779-1.075-0.312-0.218-0.686-0.327-1.060-0.327h-0.374v5.658h-4.318zM5.3 6.921h1.824c0.39-0.031 0.764-0.094 1.138-0.187 0.281-0.047 0.53-0.203 0.701-0.436 0.421-0.561 0.358-1.356-0.156-1.839-0.281-0.234-0.826-0.359-1.605-0.359h-1.902v2.821zM0 27.152l4.099-0.265c0.094 0.67 0.265 1.169 0.546 1.528 0.436 0.561 1.075 0.857 1.902 0.857 0.608 0 1.091-0.14 1.418-0.436 0.312-0.249 0.499-0.608 0.499-0.998 0-0.374-0.171-0.733-0.468-0.966-0.312-0.281-1.044-0.561-2.213-0.811-1.886-0.421-3.242-0.982-4.037-1.699-0.795-0.67-1.247-1.652-1.216-2.697 0-0.717 0.218-1.434 0.623-2.026 0.468-0.67 1.107-1.2 1.87-1.496 0.826-0.358 1.98-0.546 3.429-0.546 1.777 0 3.133 0.327 4.068 0.998s1.481 1.715 1.652 3.164l-4.053 0.234c-0.109-0.623-0.327-1.076-0.686-1.372-0.343-0.296-0.826-0.436-1.434-0.421-0.499 0-0.873 0.109-1.122 0.327-0.249 0.187-0.39 0.468-0.374 0.779 0 0.234 0.125 0.452 0.312 0.592 0.203 0.187 0.686 0.358 1.45 0.514 1.886 0.405 3.227 0.811 4.053 1.231s1.418 0.935 1.777 1.543c0.374 0.623 0.561 1.34 0.561 2.057 0 0.873-0.265 1.73-0.748 2.463-0.514 0.764-1.231 1.356-2.073 1.715-0.888 0.39-2.011 0.592-3.351 0.592-2.369 0-4.006-0.452-4.925-1.372-0.92-0.935-1.434-2.089-1.559-3.491z"></path>
        <path fill="#000" style="fill: var(--color1, #000)" d="M20.731 26.061l3.772 1.138c-0.203 0.951-0.623 1.855-1.2 2.65-0.53 0.701-1.231 1.247-2.026 1.605-0.811 0.358-1.839 0.546-3.086 0.546-1.512 0-2.759-0.218-3.71-0.655-0.966-0.436-1.793-1.216-2.494-2.322s-1.044-2.525-1.044-4.255c0-2.307 0.608-4.084 1.839-5.315s2.962-1.855 5.206-1.855c1.761 0 3.133 0.358 4.146 1.060 0.998 0.717 1.746 1.808 2.245 3.273l-3.803 0.842c-0.094-0.327-0.234-0.655-0.421-0.935-0.234-0.327-0.53-0.577-0.888-0.764s-0.764-0.265-1.169-0.265c-0.982 0-1.73 0.39-2.245 1.185-0.39 0.577-0.592 1.496-0.592 2.743 0 1.543 0.234 2.603 0.701 3.18s1.122 0.857 1.98 0.857c0.826 0 1.45-0.234 1.87-0.686 0.421-0.483 0.733-1.153 0.92-2.026zM29.537 17.831h4.302v4.879h4.707v-4.879h4.333v13.935h-4.333v-5.642h-4.707v5.642h-4.302v-13.935z"></path>
        <path fill="#000" style="fill: var(--color1, #000)" d="M42.287 24.799c0-2.276 0.639-4.053 1.902-5.315s3.039-1.902 5.3-1.902c2.322 0 4.099 0.623 5.362 1.87s1.886 2.993 1.886 5.237c0 1.637-0.281 2.962-0.826 4.006-0.53 1.029-1.356 1.87-2.369 2.432-1.044 0.577-2.338 0.873-3.881 0.873-1.574 0-2.868-0.249-3.897-0.748-1.060-0.53-1.933-1.356-2.51-2.369-0.639-1.091-0.966-2.447-0.966-4.084zM46.589 24.814c0 1.403 0.265 2.416 0.779 3.039 0.514 0.608 1.231 0.92 2.135 0.92 0.92 0 1.637-0.296 2.151-0.904s0.764-1.683 0.764-3.242c0-1.309-0.265-2.276-0.795-2.868-0.53-0.608-1.247-0.904-2.151-0.904-0.795-0.031-1.559 0.312-2.089 0.92s-0.795 1.621-0.795 3.039zM61.148 24.799c0-2.276 0.639-4.053 1.902-5.315s3.039-1.902 5.3-1.902c2.322 0 4.115 0.623 5.362 1.87s1.886 2.993 1.886 5.237c0 1.637-0.281 2.962-0.826 4.006-0.53 1.029-1.356 1.87-2.369 2.432-1.044 0.577-2.338 0.873-3.881 0.873-1.574 0-2.868-0.249-3.897-0.748-1.060-0.53-1.933-1.356-2.51-2.369-0.639-1.091-0.966-2.447-0.966-4.084zM65.45 24.814c0 1.403 0.265 2.416 0.779 3.039 0.514 0.608 1.231 0.92 2.135 0.92 0.92 0 1.637-0.296 2.151-0.904s0.764-1.683 0.764-3.242c0-1.309-0.265-2.276-0.795-2.868-0.53-0.608-1.247-0.904-2.151-0.904-0.795-0.031-1.574 0.312-2.089 0.92-0.53 0.608-0.795 1.621-0.795 3.039z"></path>
        <path fill="#000" style="fill: var(--color1, #000)" d="M75.145 17.831h4.302v10.506h6.718v3.429h-11.036v-13.935z"></path>
        <path fill="#fff" style="fill: var(--color2, #fff)" d="M46.656 8.813l22.382-16.866 15.487 20.552-22.382 16.866z"></path>
        <path fill="#fff" style="fill: var(--color2, #fff)" d="M73.386 4.669c2.684 3.561 1.348 9.094-2.983 12.358s-10.018 3.023-12.701-0.538c-2.684-3.561-1.348-9.094 2.983-12.358s10.018-3.023 12.701 0.538z"></path>
        <path fill="#fff" style="fill: var(--color2, #fff)" d="M52.888 10.185l15.672-11.81 9.728 12.909-15.672 11.81z"></path>
        <path fill="#fff" style="fill: var(--color2, #fff); stroke: var(--color1, #000)" stroke="#000" stroke-linejoin="miter" stroke-linecap="butt" stroke-miterlimit="10" stroke-width="0.6235" d="M73.386 4.669c2.684 3.561 1.348 9.094-2.983 12.358s-10.018 3.023-12.701-0.538c-2.684-3.561-1.348-9.094 2.983-12.358s10.018-3.023 12.701 0.538z"></path>
        <path fill="none" stroke="#000" style="stroke: var(--color1, #000)" stroke-linejoin="miter" stroke-linecap="butt" stroke-miterlimit="10" stroke-width="0.6235" d="M52.888 10.185l15.672-11.81 9.728 12.909-15.672 11.81z"></path>
        <path fill="none" stroke="#000" style="stroke: var(--color1, #000)" stroke-linejoin="miter" stroke-linecap="butt" stroke-miterlimit="10" stroke-width="0.6235" d="M46.656 8.813l22.382-16.866 15.487 20.552-22.382 16.866z"></path>
        <path fill="none" stroke="#000" style="stroke: var(--color1, #000)" stroke-linejoin="miter" stroke-linecap="butt" stroke-miterlimit="10" stroke-width="0.6235" d="M73.386 4.669c2.684 3.561 1.348 9.094-2.983 12.358s-10.018 3.023-12.701-0.538c-2.684-3.561-1.348-9.094 2.983-12.358s10.018-3.023 12.701 0.538z"></path>
        <path fill="#000" style="fill: var(--color1, #000)" d="M61.163 9.555l1.559-1.091 1.917 2.728c0.327 0.436 0.577 0.904 0.764 1.418 0.109 0.39 0.078 0.811-0.078 1.185-0.203 0.468-0.53 0.857-0.966 1.138-0.514 0.358-0.951 0.561-1.325 0.623-0.358 0.062-0.733 0-1.075-0.156-0.374-0.187-0.701-0.452-0.951-0.795l1.34-1.247c0.109 0.171 0.249 0.327 0.405 0.452 0.109 0.078 0.234 0.125 0.374 0.125 0.109 0 0.218-0.047 0.296-0.109 0.156-0.094 0.265-0.281 0.249-0.468-0.047-0.265-0.156-0.53-0.327-0.733l-2.182-3.071zM65.839 11.285l1.418-1.122c0.156 0.187 0.359 0.327 0.577 0.405 0.312 0.094 0.639 0.031 0.904-0.171 0.187-0.125 0.343-0.296 0.405-0.514 0.094-0.281-0.062-0.592-0.343-0.686-0.047-0.016-0.094-0.031-0.14-0.031-0.187-0.016-0.514 0.062-0.998 0.265-0.795 0.327-1.418 0.452-1.886 0.405-0.452-0.047-0.873-0.281-1.122-0.67-0.187-0.265-0.281-0.577-0.296-0.888 0-0.359 0.094-0.717 0.296-1.013 0.296-0.421 0.655-0.779 1.091-1.060 0.655-0.452 1.231-0.67 1.73-0.67s0.966 0.234 1.403 0.717l-1.403 1.107c-0.281-0.359-0.811-0.436-1.169-0.156l-0.047 0.047c-0.156 0.094-0.265 0.234-0.327 0.405-0.047 0.125-0.016 0.265 0.062 0.374 0.062 0.078 0.156 0.14 0.265 0.14 0.125 0.016 0.343-0.047 0.655-0.187 0.779-0.327 1.372-0.514 1.777-0.577 0.343-0.062 0.701-0.031 1.029 0.109 0.296 0.125 0.546 0.343 0.717 0.608 0.218 0.312 0.343 0.686 0.359 1.075 0.016 0.405-0.094 0.795-0.312 1.138-0.281 0.421-0.639 0.779-1.060 1.060-0.857 0.592-1.559 0.842-2.12 0.748-0.608-0.094-1.107-0.405-1.465-0.857z"></path>
    </symbol>
    <symbol id="icon-github" viewBox="0 0 118 32">
        <path d="M22.721 13.655h-9.913c-0.256 0-0.463 0.208-0.463 0.464v4.847c0 0.256 0.208 0.464 0.463 0.464h3.867v6.022s-0.868 0.296-3.269 0.296c-2.832 0-6.789-1.035-6.789-9.735 0-8.702 4.12-9.847 7.988-9.847 3.348 0 4.791 0.589 5.708 0.873 0.288 0.088 0.555-0.199 0.555-0.455l1.106-4.683c0-0.12-0.041-0.264-0.177-0.362-0.373-0.266-2.647-1.538-8.391-1.538-6.618 0-13.406 2.816-13.406 16.351s7.772 15.552 14.322 15.552c5.423 0 8.712-2.317 8.712-2.317 0.136-0.075 0.15-0.264 0.15-0.351v-15.116c0-0.256-0.207-0.464-0.463-0.464zM73.783 1.694c0-0.258-0.204-0.466-0.46-0.466h-5.582c-0.256 0.001-0.462 0.208-0.462 0.464 0 0.001 0 0.001 0 0.002v-0l0.001 10.787h-8.7v-10.787c0-0.258-0.205-0.466-0.461-0.466h-5.582c-0.255 0.001-0.461 0.208-0.461 0.464 0 0.001 0 0.002 0 0.002v-0 29.208c0 0.258 0.207 0.467 0.461 0.467h5.582c0.255 0 0.46-0.209 0.46-0.467v-12.493h8.701l-0.015 12.493c0 0.258 0.207 0.467 0.462 0.467h5.595c0.256 0 0.46-0.209 0.46-0.467v-29.208zM33.236 5.599c0-2.010-1.611-3.634-3.599-3.634-1.986 0-3.599 1.624-3.599 3.634 0 2.007 1.613 3.636 3.599 3.636 1.988 0 3.599-1.629 3.599-3.636zM32.793 24.756v-13.482c0-0.256-0.206-0.465-0.462-0.465h-5.564c-0.255 0-0.483 0.263-0.483 0.519v19.316c0 0.568 0.354 0.736 0.811 0.736h5.013c0.55 0 0.685-0.27 0.685-0.746v-5.879zM95.116 10.809h-5.539c-0.254 0-0.461 0.209-0.461 0.467v14.322s-1.407 1.030-3.404 1.030c-1.997 0-2.527-0.906-2.527-2.862v-12.489c0-0.258-0.207-0.467-0.461-0.467h-5.622c-0.254 0-0.462 0.21-0.462 0.467v13.435c0 5.808 3.238 7.229 7.691 7.229 3.654 0 6.599-2.018 6.599-2.018s0.14 1.064 0.204 1.19c0.064 0.126 0.229 0.253 0.407 0.253l3.576-0.016c0.254 0 0.462-0.21 0.462-0.466l-0.002-19.607c0-0.258-0.207-0.467-0.462-0.467zM107.878 26.638c-1.921-0.058-3.224-0.93-3.224-0.93v-9.25s1.286-0.788 2.863-0.929c1.995-0.179 3.917 0.424 3.917 5.182 0 5.018-0.867 6.008-3.555 5.927zM110.063 10.181c-3.146 0-5.286 1.404-5.286 1.404v-9.891c0-0.001 0-0.002 0-0.003 0-0.255-0.206-0.461-0.46-0.463h-5.598c-0.255 0.001-0.461 0.208-0.461 0.463 0 0.001 0 0.002 0 0.003v-0 29.208c0 0.258 0.207 0.467 0.462 0.467h3.884c0.175 0 0.307-0.090 0.405-0.248 0.096-0.157 0.236-1.347 0.236-1.347s2.289 2.169 6.622 2.169c5.087 0 8.004-2.58 8.004-11.583s-4.659-10.179-7.807-10.179zM48.858 10.758h-4.187l-0.006-5.531c0-0.209-0.108-0.314-0.35-0.314h-5.706c-0.222 0-0.341 0.098-0.341 0.311v5.716s-2.859 0.69-3.053 0.746c-0.195 0.058-0.334 0.235-0.334 0.445 0 0 0 0 0 0v0 3.592c0 0.258 0.206 0.467 0.462 0.467h2.925v8.641c0 6.418 4.502 7.049 7.54 7.049 1.388 0 3.049-0.446 3.323-0.547 0.166-0.061 0.262-0.233 0.262-0.419l0.005-3.951c0-0.258-0.218-0.466-0.463-0.466-0.244 0-0.868 0.099-1.511 0.099-2.057 0-2.753-0.956-2.753-2.194l-0-8.212h4.187c0.255-0.001 0.462-0.208 0.462-0.464 0-0.001 0-0.002 0-0.003v0-4.499c0-0.258-0.206-0.466-0.462-0.466z"></path>
    </symbol>
</defs>
</svg>
