<svg aria-hidden="true" style="position: absolute; width: 0; height: 0; overflow: hidden;" version="1.1" xmlns="http://www.w3.org/2000/svg" xmlns:xlink="http://www.w3.org/1999/xlink">
<defs>
<symbol id="icon-rs_school" viewBox="0 0 86 32">
<path d="M49.114 1.173c-2.514 0.357-4.021 1.849-4.021 3.979 0 2.181 1.398 3.401 4.898 4.276 2.322 0.581 2.914 0.962 2.914 1.876 0 0.645-0.694 1.322-1.388 1.354-1.607 0.075-2.385-0.384-2.757-1.626l-0.186-0.622-1.13 0.036c-0.622 0.020-1.542 0.074-2.044 0.121l-0.914 0.085 0.095 0.597c0.255 1.606 1.447 3.136 2.856 3.663 1.785 0.668 4.983 0.699 6.603 0.066 0.8-0.313 1.73-0.952 2.075-1.426l0.279-0.383 0.093 0.681c0.242 1.762 1.772 3.762 3.543 4.629 0.837 0.41 1.261 0.544 2.629 0.832l0.404 0.085-0.534 0.728c-0.849 1.156-1.226 2.372-1.309 4.216-0.173 3.848 1.499 6.512 4.605 7.339 1.187 0.316 4.304 0.265 5.45-0.089 1.543-0.477 2.799-1.554 3.598-3.086 0.215-0.412 0.225-0.351 0.23 1.4l0.006 1.831h11.058v-3.447h-6.75v-10.483h-4.308v1.903l-0 1.903-0.317-0.646c-0.411-0.839-1.732-2.157-2.561-2.555-0.359-0.172-1.079-0.419-1.601-0.548l-0.949-0.234 0.883-0.676c1.757-1.345 3.485-3.929 3.953-5.912 0.841-3.564-0.422-6.727-3.288-8.232-1.299-0.682-2.392-0.942-3.969-0.942-1.562 0-2.466 0.171-3.902 0.739-2.577 1.019-4.656 2.895-5.924 5.348-0.27 0.522-0.523 0.945-0.562 0.941s-0.267-0.279-0.505-0.61c-0.635-0.881-2.267-1.656-4.759-2.259-2.578-0.624-3.073-1.048-2.29-1.959 0.305-0.354 0.443-0.4 1.195-0.4 1.058 0 1.546 0.293 1.928 1.156l0.281 0.635 1.25-0.078c0.687-0.043 1.581-0.111 1.987-0.152l0.737-0.074-0.13-0.58c-0.072-0.319-0.217-0.789-0.324-1.043-0.808-1.933-3.6-2.857-7.123-2.357zM1.005 8.246v6.977h4.308v-5.601h0.424c1.012 0 1.229 0.263 3.097 3.77l0.976 1.831h2.419c1.331 0 2.419-0.029 2.419-0.066s-0.462-0.957-1.027-2.046c-1.236-2.383-1.923-3.328-2.714-3.73l-0.594-0.301 0.7-0.233c1.569-0.521 2.509-1.887 2.52-3.664 0.011-1.735-0.795-2.959-2.341-3.556-0.542-0.209-1.341-0.254-5.411-0.302l-4.775-0.056v6.977zM68.838 2.361c2.61 0.499 4.56 2.184 5.283 4.564 0.414 1.362 0.328 3.467-0.198 4.886-1.151 3.104-3.79 5.582-7.148 6.713-1.307 0.44-3.627 0.551-4.88 0.232-2.048-0.52-3.708-1.772-4.498-3.393-1.73-3.55-0.404-7.814 3.318-10.664 1.953-1.496 2.946-1.973 4.842-2.33 1.343-0.253 1.995-0.254 3.281-0.008zM8.518 4.332c0.475 0.253 0.663 0.571 0.668 1.129 0.010 1.070-0.666 1.43-2.688 1.431l-1.185 0.001v-2.729h1.446c0.823 0 1.581 0.072 1.759 0.167zM66.203 5.971c-1.825 1.037-2.344 2.428-1.285 3.442 0.352 0.337 0.541 0.404 1.106 0.39 0.375-0.009 1.063-0.151 1.53-0.315 1.063-0.374 1.327-0.374 1.526-0.002 0.372 0.695-0.696 1.396-1.46 0.958-0.382-0.219-0.415-0.21-1.054 0.287-0.363 0.283-0.638 0.584-0.613 0.671s0.351 0.309 0.724 0.496c0.826 0.414 1.309 0.352 2.395-0.304 1.465-0.886 2.033-2.073 1.515-3.166-0.516-1.087-1.367-1.244-3.228-0.596-1.303 0.454-1.634 0.383-1.329-0.286 0.194-0.426 0.743-0.6 1.17-0.371 0.305 0.163 0.371 0.129 1.588-0.825 0.039-0.031-0.11-0.212-0.331-0.403-0.548-0.471-1.398-0.462-2.254 0.024zM61.933 9.026l-0.752 0.544 1.219 1.736c1.32 1.881 1.495 2.405 0.854 2.566-0.246 0.062-0.454 0.011-0.638-0.156-0.26-0.235-0.294-0.233-0.676 0.039-0.221 0.158-0.532 0.43-0.689 0.604l-0.286 0.317 0.43 0.346c0.913 0.734 1.823 0.708 2.918-0.086 1.126-0.816 1.411-1.7 0.883-2.743-0.274-0.541-2.404-3.73-2.482-3.717-0.015 0.003-0.365 0.25-0.779 0.549zM3.949 17.858c-1.073 0.277-1.838 0.724-2.47 1.442-1.331 1.513-1.214 3.706 0.271 5.048 0.756 0.683 1.808 1.141 3.851 1.675 0.908 0.237 1.829 0.523 2.045 0.635 1.318 0.68 0.908 2.336-0.64 2.588-1.283 0.208-2.4-0.463-2.75-1.652-0.186-0.634-0.22-0.666-0.682-0.638-0.267 0.016-1.187 0.071-2.043 0.122l-1.557 0.093 0.096 0.512c0.218 1.165 0.695 2.109 1.441 2.855 0.617 0.617 0.928 0.803 1.768 1.058 0.903 0.274 1.287 0.304 3.358 0.261 2.221-0.046 2.384-0.070 3.234-0.462 0.846-0.39 2.192-1.588 2.192-1.951 0-0.083 0.404 0.26 0.898 0.762 1.388 1.411 1.993 1.602 5.065 1.603l2.444 0 0.948-0.467c1.162-0.572 2.022-1.473 2.579-2.702 0.64-1.411 0.669-1.366-1.297-1.974-0.942-0.291-1.772-0.529-1.844-0.529s-0.205 0.242-0.295 0.539c-0.446 1.462-1.193 2.045-2.625 2.046-1.583 0.001-2.273-0.694-2.589-2.608-0.177-1.072-0.054-2.828 0.25-3.555 0.606-1.45 2.079-2.093 3.466-1.514 0.698 0.292 1.031 0.603 1.312 1.23l0.232 0.517 1.723-0.385c0.948-0.212 1.807-0.413 1.91-0.448 0.348-0.117-0.756-2.041-1.628-2.838-1.262-1.153-2.008-1.377-4.59-1.377-1.91 0-2.247 0.037-2.978 0.329-1.129 0.451-2.094 1.127-2.642 1.85l-0.46 0.606-0.426-0.755c-0.46-0.816-1.16-1.382-2.182-1.766-0.853-0.321-4.348-0.417-5.385-0.149zM47.141 17.885c-1.647 0.444-3.024 1.414-3.744 2.639l-0.387 0.658-0.072-1.652-0.072-1.651h-4.308l-0.039 2.405-0.039 2.406h-4.582l-0.039-2.406-0.039-2.405-4.236-0.079v13.938h4.308v-5.601h4.595v5.601h4.452l0-1.687 0.001-1.687 0.305 0.503c0.81 1.333 2.014 2.304 3.382 2.726 1.353 0.418 4.561 0.416 5.805-0.003 2.792-0.941 4.288-3.317 4.288-6.816 0-3.675-1.682-6.073-4.834-6.894-1.042-0.271-3.726-0.267-4.745 0.007zM7.175 20.484c0.438 0.259 0.867 0.892 0.867 1.279 0 0.228 0.142 0.24 1.671 0.146 1.431-0.088 1.66-0.073 1.591 0.106-0.044 0.115-0.122 0.524-0.174 0.909-0.149 1.113-0.114 1.092-1.108 0.628-0.497-0.232-1.712-0.621-2.699-0.864-2.273-0.56-2.58-0.683-2.737-1.097-0.16-0.42 0.070-0.969 0.492-1.173 0.481-0.233 1.652-0.195 2.096 0.067zM50.294 20.973c1.292 0.359 1.984 1.45 2.089 3.294 0.115 2.030-0.302 3.339-1.301 4.080-0.301 0.223-0.664 0.309-1.436 0.342-1.266 0.054-2.005-0.302-2.502-1.203-0.682-1.236-0.704-3.924-0.042-5.221 0.583-1.143 1.864-1.661 3.194-1.292zM69.787 21.232c1.090 0.562 1.496 1.678 1.42 3.904-0.063 1.851-0.431 2.739-1.35 3.26-0.634 0.359-2.136 0.451-2.694 0.165-0.655-0.336-1.257-1.060-1.466-1.764-0.439-1.477-0.18-4.148 0.474-4.896 0.926-1.058 2.35-1.321 3.616-0.668z"></path>
</symbol>
    <symbol id="icon-speaker-svgrepo-com-1" viewBox="0 0 32 32">
        <path d="M32 16c0-8.837-7.163-16-16-16s-16 7.163-16 16c0 8.836 7.163 15.999 16 15.999s16-7.163 16-15.999z"></path>
        <path d="M18.37 8.315c-0.094-0.052-0.206-0.083-0.326-0.083-0.138 0-0.267 0.041-0.374 0.112l0.003-0.002-6.136 3.985h-2.268c-0.377 0-0.683 0.306-0.683 0.682v5.981c0 0.377 0.306 0.683 0.683 0.683h2.268l6.136 3.985c0.105 0.069 0.234 0.11 0.372 0.11 0.119 0 0.232-0.031 0.329-0.085l-0.004 0.002c0.214-0.118 0.357-0.342 0.357-0.6v0-14.171c0-0.25-0.137-0.48-0.357-0.6zM20.627 20.828c0.058 0 0.116-0.010 0.173-0.032 1.563-0.607 2.614-2.482 2.614-4.667 0-1.932-0.851-3.679-2.169-4.451-0.228-0.134-0.521-0.057-0.655 0.171-0.041 0.069-0.066 0.153-0.066 0.242 0 0.175 0.094 0.328 0.234 0.412l0.002 0.001c1.030 0.604 1.696 2.027 1.696 3.625 0 1.765-0.824 3.317-2.003 3.775-0.18 0.071-0.305 0.244-0.305 0.446 0 0.062 0.012 0.122 0.034 0.177l-0.001-0.003c0.071 0.18 0.244 0.305 0.446 0.305 0 0 0 0 0 0v0z"></path>
    </symbol>
    <symbol id="icon-mute-svgrepo-com-1" viewBox="0 0 32 32">
        <path d="M32 16c0-8.837-7.163-16-16-16s-16 7.163-16 16c0 8.836 7.163 15.999 16 15.999s16-7.163 16-15.999z"></path>
        <path d="M16.732 8.315c-0.094-0.052-0.206-0.083-0.326-0.083-0.138 0-0.267 0.041-0.374 0.112l0.003-0.002-6.136 3.985h-2.268c-0.377 0-0.683 0.306-0.683 0.682v5.981c0 0.377 0.306 0.683 0.683 0.683h2.268l6.136 3.985c0.105 0.069 0.234 0.11 0.372 0.11 0.119 0 0.232-0.031 0.329-0.085l-0.004 0.002c0.214-0.118 0.357-0.342 0.357-0.6v0-14.171c-0-0.258-0.143-0.482-0.353-0.598l-0.004-0.002zM22.922 16l1.96-1.96c0.105-0.105 0.17-0.25 0.17-0.41 0-0.321-0.26-0.581-0.581-0.581-0.16 0-0.305 0.065-0.41 0.17l-1.96 1.96-1.96-1.96c-0.105-0.102-0.248-0.165-0.406-0.165-0.321 0-0.581 0.26-0.581 0.581 0 0.158 0.063 0.301 0.165 0.406l1.96 1.96-1.96 1.96c-0.105 0.105-0.17 0.25-0.17 0.41 0 0.321 0.26 0.581 0.581 0.581 0.16 0 0.305-0.065 0.41-0.17l1.96-1.96 1.96 1.96c0.105 0.105 0.25 0.17 0.41 0.17 0 0 0 0 0.001 0h-0c0 0 0 0 0 0 0.321 0 0.58-0.26 0.58-0.58 0-0.16-0.065-0.305-0.17-0.41l-1.96-1.96z"></path>
    </symbol>
</defs>
</svg>
