<svg aria-hidden="true" style="position: absolute; width: 0; height: 0; overflow: hidden;" version="1.1" xmlns="http://www.w3.org/2000/svg" xmlns:xlink="http://www.w3.org/1999/xlink">
<defs>
<symbol id="icon-sun1" viewBox="0 0 32 32">
<path fill="#fff" style="fill: var(--color1, #fff)" d="M16.24 12.24c2.209 0 4 1.791 4 4s-1.791 4-4 4c-2.209 0-4-1.791-4-4v0c0.003-2.208 1.792-3.997 4-4h0zM16.24 10.24c-3.314 0-6 2.686-6 6s2.686 6 6 6v0c3.314 0 6-2.686 6-6s-2.686-6-6-6v0zM5.394 6.812l1.414-1.415 3.506 3.507-1.414 1.414-3.506-3.506zM2 15.004h4.999v2h-4.999v-2zM5.394 25.197l3.506-3.506 1.414 1.415-3.506 3.505-1.414-1.414zM15 25.005h2v5.001h-2v-5.001zM21.687 23.106l1.414-1.415 3.506 3.506-1.414 1.414-3.506-3.506zM25 15.004h5.001v2h-5.001v-2zM21.687 8.904l3.506-3.506 1.415 1.415-3.506 3.505-1.414-1.414zM15 2.005h2v4.999h-2v-4.999z"></path>
</symbol>
<symbol id="icon-Vector1" viewBox="0 0 33 32">
<path d="M17.162 32c-4.597 0-8.91-1.746-12.146-4.916s-5.017-7.398-5.017-11.903c0-3.108 0.878-6.155 2.537-8.803 1.688-2.656 4.013-4.768 6.766-6.155l0.098-0.045c0.22-0.112 0.479-0.177 0.754-0.177 0.407 0 0.781 0.144 1.073 0.384l-0.003-0.002c0.25 0.206 0.433 0.48 0.526 0.787s0.090 0.634-0.006 0.939c-0.425 1.297-0.67 2.79-0.67 4.34 0 1.255 0.161 2.473 0.463 3.633l-0.022-0.1c0.703 2.707 2.085 5.028 3.955 6.852l0.003 0.003c1.355 1.336 2.967 2.416 4.755 3.158l0.099 0.036c1.687 0.705 3.648 1.115 5.704 1.115 0.011 0 0.021 0 0.032-0h-0.002c0.004 0 0.009 0 0.014 0 1.579 0 3.102-0.24 4.534-0.685l-0.108 0.029c0.313-0.094 0.646-0.096 0.96-0.006s0.592 0.269 0.802 0.514c0.242 0.279 0.39 0.646 0.39 1.047 0 0.271-0.067 0.526-0.186 0.75l0.004-0.009c-1.48 2.811-3.633 5.092-6.251 6.683l-0.075 0.042c-2.56 1.562-5.657 2.486-8.97 2.486-0.005 0-0.010 0-0.015 0h0.001zM9.341 2.651c-2.194 1.32-3.972 3.124-5.222 5.274l-0.038 0.070c-1.197 2.054-1.904 4.522-1.904 7.154 0 0.011 0 0.022 0 0.033v-0.002c0 8.098 6.722 14.686 14.986 14.686 2.568 0.007 5.093-0.636 7.333-1.866 2.252-1.249 4.091-2.993 5.416-5.094l0.036-0.061c-1.166 0.276-2.504 0.434-3.879 0.434-0.002 0-0.005 0-0.007 0h0c-0.011 0-0.023 0-0.036 0-2.355 0-4.6-0.469-6.647-1.319l0.115 0.042c-2.161-0.891-4.007-2.127-5.561-3.66l0.002 0.002c-2.002-1.954-3.514-4.401-4.341-7.145l-0.031-0.119c-0.422-1.388-0.665-2.982-0.665-4.634 0-1.347 0.161-2.656 0.466-3.909l-0.023 0.113z"></path>
</symbol>
<symbol id="icon-Play_hover1" viewBox="0 0 32 32">
<path fill="#fff" style="fill: var(--color1, #fff)" d="M14.405 0.033c-0.123 0.030-0.726 0.135-1.341 0.235-11.544 1.873-17.005 15.954-9.858 25.422 2.226 2.948 7.337 6.287 7.59 4.957 0.032-0.166-0.273-0.376-1.028-0.709-3.098-1.368-5.902-4.064-7.431-7.146-5.556-11.192 3.95-23.857 16.362-21.801 1.865 0.309 2.188-0.335 0.361-0.718-0.832-0.174-4.206-0.348-4.655-0.24zM14.48 3.334c-2.183 0.321-4.992 1.439-4.992 1.986 0 0.424 0.315 0.391 1.467-0.153 6.31-2.982 13.993 0.281 16.279 6.912 3.799 11.023-8.743 20.354-18.268 13.59-5.292-3.759-6.513-11.225-2.714-16.601 1.008-1.426 0.478-2.030-0.552-0.627-6.343 8.641 0.279 20.847 10.981 20.238 10.803-0.615 15.968-13.56 8.534-21.388-2.725-2.87-7.122-4.49-10.736-3.958v0.001zM27.468 5.28c-0.222 0.222-0.052 0.618 0.657 1.54 5.259 6.832 3.537 17.043-3.683 21.848-3.253 2.165-6.11 2.765-11.452 2.406-0.503-0.034-0.596 0.005-0.596 0.247 0 1.101 6.394 0.803 9.564-0.447 9.296-3.663 12.961-15.49 7.358-23.741-1.063-1.566-1.598-2.102-1.848-1.852zM11.634 10.858c-0.264 0.292-0.287 0.634-0.327 4.946-0.066 7.088-0.772 6.874 7.787 2.365 4.171-2.198 4.194-2.129-1.788-5.267-4.677-2.453-5.147-2.623-5.672-2.044zM16.803 13.539c4.544 2.374 4.568 2.388 4.25 2.652-0.356 0.296-8.461 4.485-8.676 4.485-0.173 0-0.208-0.779-0.208-4.694 0-3.292 0.049-4.694 0.163-4.694 0.089 0 2.101 1.013 4.471 2.25z"></path>
</symbol>
<symbol id="icon-camera2" viewBox="0 0 40 32">
<path fill="#ccba8d" style="fill: var(--color2, #ccba8d)" d="M19.774 32.023l-15.668 0.001c-2.267 0-4.106-1.838-4.106-4.106v0l0.001-0.061v0.003c0.045-6.038 0.045-12.081 0-18.127v-0.023c0-2.274 1.843-4.117 4.117-4.117v0h31.348c0.052-0.003 0.114-0.004 0.176-0.004 2.173 0 3.934 1.761 3.934 3.934 0 0.069-0.002 0.137-0.005 0.205l0-0.010 0.001-0.009v18.15c0.004 0.070 0.007 0.151 0.007 0.233 0 2.173-1.761 3.934-3.934 3.934-0.070 0-0.14-0.002-0.209-0.005l0.010 0 0.010 0.001-15.681-0.001zM19.774 28.077l0.092 0.001c5.103 0 9.241-4.138 9.241-9.241s-4.138-9.241-9.241-9.241c-5.096 0-9.228 4.124-9.241 9.216v0.001c0.031 5.046 4.088 9.135 9.119 9.218h0.008l0.023 0.046zM7.926 12.191c-0.025-0.717-0.606-1.29-1.324-1.304l-0.001-0h-0.001c-0.726 0-1.315 0.589-1.315 1.315s0.589 1.315 1.315 1.315v0c0.727-0.013 1.313-0.599 1.327-1.324l0-0.001v-0.001zM27.059 3.946h-14.559c0.228-0.915 0.435-1.796 0.663-2.676 0.051-0.723 0.65-1.29 1.381-1.29 0.089 0 0.175 0.008 0.26 0.024l-0.009-0.001-0.008-0.002h10.133c0.044-0.005 0.096-0.008 0.148-0.008 0.669 0 1.222 0.495 1.314 1.138l0.001 0.007 0.001 0.007c0.218 0.824 0.423 1.647 0.629 2.47 0.023 0.103 0.023 0.206 0.045 0.332h0.001z"></path>
<path fill="#ccba8d" style="fill: var(--color2, #ccba8d)" d="M19.751 28.031c-5.094-0.013-9.217-4.145-9.217-9.241 0-5.103 4.138-9.241 9.241-9.241s9.241 4.138 9.241 9.241l-0.001 0.097v-0.005c-0.077 5.062-4.193 9.137-9.263 9.149h-0.001zM19.751 25.389c3.645 0 6.599-2.954 6.599-6.599s-2.954-6.599-6.599-6.599c-3.636 0-6.586 2.941-6.599 6.575v0.047c0 3.632 2.944 6.576 6.576 6.576l0.068-0.001-0.045 0.001z"></path>
<path fill="#bdae82" style="fill: var(--color3, #bdae82)" d="M7.926 12.191c-0.013 0.719-0.585 1.3-1.299 1.327l-0.002 0h-0.003c-0.726 0-1.315-0.589-1.315-1.315s0.589-1.315 1.315-1.315v0c0.709 0.025 1.278 0.593 1.304 1.299l0 0.002v0.003l0.001-0.001z"></path>
<path fill="#ccba8d" style="fill: var(--color2, #ccba8d)" d="M19.923 13.53c2.802 0.092 5.050 2.343 5.135 5.139v0.008c0.002 0.025 0.003 0.053 0.003 0.082 0 0.723-0.564 1.315-1.276 1.359l-0.004 0h-0.015c-0.733 0-1.327-0.594-1.327-1.327v0c-0.025-1.44-1.178-2.602-2.612-2.642l-0.004-0h-0.004l-0.036 0.001c-0.72 0-1.304-0.584-1.304-1.304v0l0.001-0.061v0.003c0.035-0.705 0.616-1.264 1.326-1.264 0.042 0 0.084 0.002 0.125 0.006l-0.005-0h-0.004z"></path>
</symbol>
<symbol id="icon-copyright2" viewBox="0 0 32 32">
<path fill="#fff" style="fill: var(--color1, #fff)" d="M16.296 30.454c8.31 0 15.028-6.72 15-15s-6.69-15-15-15c-8.254 0-14.972 6.72-15 15s6.746 15 15 15zM16.296 27.158c-6.464 0-11.734-5.268-11.706-11.69 0.030-6.462 5.27-11.718 11.706-11.718 6.462 0 11.676 5.228 11.704 11.72 0.028 6.448-5.214 11.688-11.704 11.688zM8 15.454c0.001 4.66 3.778 8.437 8.438 8.438h0c4.034 0 7.13-2.84 7.67-6.62h-3.438c-0.398 1.946-2.046 3.324-4.232 3.324-2.84 0-5.142-2.302-5.142-5.142s2.302-5.142 5.142-5.142v0c2.188 0 4.134 1.38 4.516 3.324h3.438c-0.54-3.778-3.92-6.62-7.954-6.62-4.66 0.001-8.438 3.779-8.438 8.44 0 0.001 0 0.001 0 0.002v-0z"></path>
</symbol>
<symbol id="icon-fb2" viewBox="0 0 32 32">
<path fill="#fff" style="fill: var(--color1, #fff)" d="M13.040 29.333l-0.040-11.667h-5v-5h5v-3.333c0-4.493 2.787-6.667 6.8-6.667 1.92 0 3.573 0.133 4.053 0.2v4.707h-2.787c-2.173 0-2.6 1.040-2.6 2.56v2.533h6.2l-1.667 5h-4.533v11.667h-5.426z"></path>
</symbol>
<symbol id="icon-image2" viewBox="0 0 42 32">
<path fill="#bdae82" style="fill: var(--color3, #bdae82)" d="M0 31.042v-30.084c0.233-0.569 0.782-0.962 1.423-0.962 0.039 0 0.078 0.001 0.117 0.004l-0.005-0h39.25c0.036-0.003 0.078-0.005 0.12-0.005 0.795 0 1.439 0.644 1.439 1.439 0 0.044-0.002 0.088-0.006 0.131l0-0.006 0.001-0.005v29.009c0.005 0.042 0.008 0.092 0.008 0.141 0 0.703-0.57 1.274-1.274 1.274-0 0-0 0-0 0v0l-0.058-0.001h-39.323c-0.066 0.009-0.142 0.015-0.219 0.015-0.648 0-1.207-0.38-1.466-0.929l-0.004-0.010-0.004-0.010 0.001-0.001zM39.722 2.652h-37.082v17.887l0.409-0.28 7.185-5.152c0.253-0.255 0.604-0.412 0.991-0.412 0.001 0 0.002 0 0.002 0h-0c0.388 0 0.739 0.157 0.993 0.412l7.548 5.409c1.168 0.841 2.337 1.683 3.505 2.5 0.212 0.164 0.482 0.263 0.775 0.263 0.573 0 1.058-0.379 1.218-0.899l0.002-0.009 0.003-0.009c0.033-0.109 0.051-0.235 0.051-0.365 0-0.492-0.269-0.921-0.669-1.148l-0.007-0.003-0.006-0.003c-2.323-1.622-3.878-2.754-5.42-3.904l0.642 0.458-0.362-0.269 0.211-0.164 6.508-4.673c0.253-0.255 0.604-0.412 0.991-0.412 0.001 0 0.002 0 0.002 0h-0c0.388 0 0.739 0.157 0.993 0.412l11.099 7.968 0.409 0.269 0.010-17.876z"></path>
<path fill="#ccba8d" style="fill: var(--color2, #ccba8d)" d="M17.256 5.981c1.936 0 3.505 1.569 3.505 3.505v0c0.030 0.171 0.047 0.368 0.047 0.569 0 1.936-1.569 3.505-3.505 3.505s-3.505-1.569-3.505-3.505c0-0.209 0.018-0.413 0.053-0.611l-0.003 0.021-0.003 0.020v-0.001c0-0 0-0 0-0 0-1.901 1.514-3.449 3.402-3.503l0.005-0h0.005l-0.001 0.001z"></path>
</symbol>
<symbol id="icon-inst2" viewBox="0 0 32 32">
<path fill="#fff" style="fill: var(--color1, #fff)" d="M17.36 2.667c2.4 0 2.907 0.027 4.133 0.080 1.413 0.067 2.387 0.293 3.227 0.627 0.88 0.333 1.627 0.8 2.36 1.533 0.747 0.733 1.2 1.48 1.547 2.36 0.333 0.84 0.547 1.813 0.613 3.24 0.067 1.267 0.080 1.76 0.080 4.427v2.133c0 2.667-0.013 3.16-0.080 4.427-0.022 1.189-0.254 2.318-0.659 3.361l0.023-0.067 0.022-0.067c-0.347 0.88-0.8 1.627-1.533 2.36-0.654 0.663-1.445 1.189-2.328 1.532l-0.045 0.015c-0.84 0.333-1.813 0.547-3.227 0.613-1.267 0.067-1.773 0.080-4.44 0.080h-2.12c-2.667 0-3.16-0.013-4.44-0.080-1.189-0.022-2.318-0.254-3.361-0.659l0.067 0.023 0.067 0.022c-0.922-0.354-1.709-0.875-2.358-1.532l-0.002-0.002c-0.655-0.641-1.176-1.418-1.517-2.285l-0.015-0.044-0.015-0.045c-0.37-0.953-0.593-2.056-0.613-3.209l-0-0.008v-0.010c-0.053-1.027-0.084-2.23-0.084-3.44 0-0.256 0.001-0.511 0.004-0.766l-0 0.039v0.034-2.733c0-2.4 0.027-2.907 0.080-4.133 0.067-1.413 0.293-2.387 0.613-3.227 0.347-0.88 0.8-1.627 1.547-2.36 0.634-0.656 1.408-1.174 2.274-1.505l0.043-0.014 0.043-0.014c0.952-0.374 2.053-0.602 3.205-0.626l0.010-0h0.012c1.227-0.053 1.733-0.080 4.133-0.080h2.734zM17.387 5.067h-2.787c-2.307 0-2.8 0.027-4 0.080-1.293 0.053-2 0.267-2.467 0.453-0.602 0.224-1.115 0.565-1.532 0.999l-0.001 0.001c-0.466 0.467-0.76 0.907-1 1.533-0.173 0.467-0.4 1.173-0.453 2.48-0.053 1.2-0.080 1.68-0.080 4v2.773c0 2.32 0.027 2.8 0.080 4 0.053 1.293 0.267 2 0.453 2.467 0.24 0.627 0.533 1.067 1 1.533s0.907 0.76 1.533 1c0.467 0.187 1.173 0.4 2.48 0.453 1.293 0.067 1.76 0.080 4.64 0.080h1.48c2.893 0 3.347-0.013 4.653-0.080 1.293-0.053 2-0.267 2.467-0.453 0.602-0.224 1.115-0.565 1.532-0.999l0.001-0.001c0.466-0.467 0.76-0.907 1-1.533 0.187-0.467 0.4-1.173 0.453-2.467 0.067-1.307 0.080-1.76 0.080-4.653v-1.467c0-2.893-0.013-3.36-0.080-4.667-0.053-1.293-0.267-2-0.453-2.467-0.227-0.601-0.567-1.112-0.998-1.531l-0.001-0.001-0.001-0.001c-0.413-0.426-0.915-0.763-1.477-0.981l-0.028-0.010-0.028-0.009c-0.731-0.278-1.576-0.444-2.458-0.453l-0.004-0h-0.005c-1.017-0.053-2.207-0.083-3.404-0.083-0.22 0-0.44 0.001-0.659 0.003l0.034-0h0.030l0.001 0.001zM16 9.147c3.782 0 6.847 3.066 6.847 6.847s-3.066 6.847-6.847 6.847v0c-3.781 0-6.847-3.066-6.847-6.847s3.066-6.847 6.847-6.847v0zM16 11.547c-2.456 0-4.447 1.991-4.447 4.447s1.991 4.447 4.447 4.447v0c2.456 0 4.447-1.991 4.447-4.447s-1.991-4.447-4.447-4.447v0zM23.107 7.28c0.884 0 1.6 0.716 1.6 1.6s-0.716 1.6-1.6 1.6v0c-0.884 0-1.6-0.716-1.6-1.6s0.716-1.6 1.6-1.6v0z"></path>
</symbol>
<symbol id="icon-logo2" viewBox="0 0 32 32">
<path fill="#fff" style="fill: var(--color1, #fff)" d="M13.088 3.366c-0.869 0.28-1.603 0.779-1.786 1.213l-0.077 0.183-1.206-0.006-0.156-0.322c-0.12-0.245-0.223-0.358-0.439-0.476l-0.282-0.154h-2.035c-2.669 0-3.006 0.132-3.006 1.189v0.297l-0.454 0.222c-1.674 0.817-2.985 2.433-3.503 4.314l-0.145 0.525v6.453c0 7.048-0.021 6.592 0.35 7.59 0.833 2.235 2.762 3.852 5.121 4.294 0.794 0.148 20.264 0.148 21.057 0 2.359-0.442 4.289-2.058 5.121-4.294 0.371-0.997 0.35-0.541 0.35-7.589v-6.453l-0.139-0.494c-0.726-2.584-2.586-4.346-5.215-4.943-0.393-0.090-0.909-0.111-3.173-0.134l-2.703-0.029-0.074-0.177c-0.184-0.436-0.97-0.961-1.837-1.225-0.684-0.208-5.114-0.195-5.77 0.017zM25.638 6.926c1.916 0.195 3.409 1.363 4.056 3.178l0.176 0.494 0.018 5.96c0.020 6.815 0.041 6.496-0.497 7.592-0.607 1.234-1.83 2.167-3.197 2.439-0.732 0.146-19.66 0.146-20.389 0-1.379-0.275-2.598-1.227-3.24-2.528-0.489-0.993-0.475-0.76-0.454-7.503l0.018-5.96 0.195-0.54c0.625-1.728 2.154-2.944 3.932-3.128 0.758-0.078 18.61-0.083 19.383-0.005v0.001zM6.091 7.608c-2.008 0.291-3.304 1.924-3.304 4.166v0.83h4.296l0.144-0.293c0.636-1.296 1.916-2.701 3.293-3.616 0.515-0.342 1.872-1.030 2.032-1.030 0.037 0 0.067-0.028 0.067-0.063 0-0.076-5.997-0.071-6.527 0.005v0.001zM19.382 7.587c0 0.029 0.106 0.090 0.235 0.134 1.965 0.681 4.359 2.819 5.176 4.621l0.119 0.262h4.302v-0.829c0-2.093-0.968-3.466-2.88-4.084-0.377-0.122-6.952-0.22-6.952-0.103l-0.001-0.001zM15.405 8.012c-7.299 0.703-10.841 8.612-6.386 14.259 4.925 6.242 15.222 3.139 15.868-4.783 0.432-5.306-4.245-9.98-9.482-9.476zM17.065 10.205c4.204 0.595 6.825 5.132 5.225 9.044-1.843 4.509-7.757 5.664-11.145 2.178-4.495-4.625-0.532-12.135 5.92-11.222zM15.278 11.246c-3.782 0.527-5.964 4.336-4.469 7.807 1.715 3.983 7.47 4.477 9.912 0.851 2.672-3.968-0.692-9.318-5.443-8.658zM17.739 12.102c0.73 0.224 1.277 0.747 1.29 1.233 0.029 1.121-2.242 1.085-3.002-0.047-0.578-0.861 0.451-1.574 1.712-1.187zM14.528 20.643c0.692 0.144 1.722 0.768 1.722 1.043 0 0.641-2.326 0.227-3.005-0.535-0.469-0.527 0.102-0.754 1.283-0.508zM26.824 23.040c-1.293 0.396-1.042 2.168 0.305 2.163 1.37-0.004 1.472-1.994 0.111-2.18-0.138-0.019-0.325-0.011-0.417 0.017z"></path>
</symbol>
<symbol id="icon-mic2" viewBox="0 0 20 32">
<path fill="#ccba8d" style="fill: var(--color2, #ccba8d)" d="M2.797 32v-1.855h6.538v-3.95c-5.245-0.523-9.311-4.901-9.336-10.235v-0.003h1.844c0.007 2.804 1.391 5.282 3.511 6.797l0.025 0.017 0.026 0.017c1.32 0.989 2.984 1.583 4.788 1.583 0.007 0 0.014 0 0.020-0h-0.001c0.152 0 0.303-0.004 0.453-0.012l-0.021 0.001c4.476-0.217 8.028-3.878 8.068-8.378v-0.004h1.855v0.071c0 0.004 0 0.009 0 0.014 0 2.655-1.031 5.069-2.714 6.864l0.005-0.005 0.005-0.006c-1.658 1.816-3.954 3.026-6.53 3.274l-0.082 0.006v3.898h6.559v1.886l-15.014 0.020z"></path>
<path fill="#bdae82" style="fill: var(--color3, #bdae82)" d="M16.849 7.492v2.819h-4.663v1.865h4.652v2.808h-4.642v1.886h4.568c-0.46 3.206-3.188 5.644-6.486 5.644s-6.026-2.437-6.482-5.608l-0.004-0.035h4.589v-1.855h-4.631v-2.819h4.631v-1.876h-4.631v-2.797h4.631v-1.896h-4.568c0.49-3.174 3.203-5.577 6.476-5.577 3.27 0 5.98 2.397 6.47 5.53l0.004 0.037h-4.579v1.876l4.664-0.001z"></path>
</symbol>
<symbol id="icon-pinterest2" viewBox="0 0 32 32">
<path fill="#fff" style="fill: var(--color1, #fff)" d="M16 2.667c-7.343 0.027-13.286 5.986-13.286 13.333 0 5.599 3.452 10.393 8.343 12.368l0.089 0.032c-0.133-1.053-0.227-2.667 0.040-3.827l1.56-6.627s-0.4-0.8-0.4-1.973c0-1.853 1.080-3.227 2.427-3.227 1.133 0 1.693 0.853 1.693 1.867 0 1.147-0.733 2.853-1.12 4.44-0.32 1.333 0.667 2.413 1.987 2.413 2.373 0 4.187-2.493 4.187-6.093 0-3.2-2.293-5.413-5.573-5.413-0.075-0.004-0.164-0.006-0.253-0.006-3.188 0-5.773 2.584-5.773 5.773v0.006c0 1.147 0.44 2.373 0.987 3.040 0.107 0.133 0.12 0.253 0.080 0.387l-0.373 1.507c-0.053 0.24-0.2 0.307-0.44 0.187-1.68-0.787-2.72-3.2-2.72-5.173 0-4.2 3.067-8.053 8.827-8.053 4.613 0 8.227 3.28 8.227 7.693 0 4.6-2.907 8.293-6.933 8.293-1.333 0-2.613-0.707-3.040-1.533l-0.84 3.16c-0.437 1.358-1.010 2.538-1.722 3.618l0.034-0.055 0.034-0.056c1.17 0.372 2.516 0.587 3.911 0.587 7.364 0 13.333-5.97 13.333-13.333 0-7.347-5.942-13.306-13.282-13.333h-0.003l-0.001-0.002z"></path>
</symbol>
<symbol id="icon-tw2" viewBox="0 0 32 32">
<path fill="#fff" style="fill: var(--color1, #fff)" d="M29.333 7.84c-1 0.493-2 0.667-3.173 0.827 1.173-0.667 2-1.667 2.333-3-0.985 0.601-2.131 1.059-3.354 1.31l-0.139 0.024c-1.029-1.014-2.437-1.647-3.992-1.667l-0.004-0h-0.004c-2.84 0-5.333 2.507-5.333 5.507 0 0.493 0 0.827 0.173 1.16-4.566-0.175-8.598-2.324-11.289-5.612l-0.022-0.027-0.022-0.028c-0.426 0.721-0.677 1.589-0.677 2.516 0 0.119 0.004 0.237 0.012 0.354l-0.001-0.016-0.001-0.015c0.033 1.87 1 3.507 2.453 4.468l0.020 0.013 0.021 0.013c-0.84 0-1.667-0.333-2.507-0.667 0 2.667 1.84 4.84 4.333 5.333-0.493 0.173-1 0.173-1.493 0.173-0.333 0-0.667 0-1-0.173 0.667 2.173 2.667 3.84 5.173 3.84-1.792 1.454-4.1 2.335-6.614 2.335-0.008 0-0.016 0-0.024-0h0.001l-0.202-0.002h-1.333c2.365 1.509 5.236 2.429 8.316 2.493h0.017c10 0 15.507-8.333 15.507-15.507v-0.667c1.133-0.783 2.070-1.765 2.779-2.903l0.024-0.041 0.024-0.042h-0.002z"></path>
</symbol>
<symbol id="icon-video2" viewBox="0 0 38 32">
<path fill="#bdae82" style="fill: var(--color3, #bdae82)" d="M38.3 0.836v30.383c-0.243 0.482-0.734 0.808-1.301 0.808-0.042 0-0.084-0.002-0.126-0.005l0.005 0 0.005 0.001h-35.479c-0.043 0.005-0.092 0.008-0.142 0.008-0.702 0-1.271-0.569-1.271-1.271 0-0.052 0.003-0.104 0.009-0.154l-0.001 0.006-0.001 0.006v-29.235c-0.003-0.035-0.005-0.076-0.005-0.118 0-0.702 0.569-1.271 1.271-1.271 0.047 0 0.093 0.003 0.139 0.008l-0.006-0.001-0.006-0.001h35.479c0.048-0.006 0.104-0.009 0.16-0.009 0.564 0 1.049 0.341 1.26 0.827l0.003 0.009 0.003 0.009h0.001zM14.428 15.989v3.579c0.001 0.234 0.033 0.461 0.093 0.676l-0.004-0.018c0.228 0.575 0.78 0.975 1.425 0.976h0c0.326 0 0.629-0.102 0.877-0.277l-0.005 0.003c2.13-1.226 4.237-2.464 6.344-3.713 0.435-0.236 0.725-0.689 0.725-1.21 0-0.518-0.287-0.969-0.711-1.203l-0.007-0.004-0.007-0.004c-2.108-1.293-4.27-2.531-6.433-3.78-0.226-0.141-0.5-0.225-0.794-0.225-0.837 0-1.516 0.679-1.516 1.516 0 0.034 0.001 0.067 0.003 0.1l-0-0.005v-0.004c0.078 1.193 0.011 2.397 0.011 3.59l-0.001 0.001zM6.044 4.193v-1.907h-3.757v1.907h3.757zM2.23 29.681h3.813v-1.873h-3.813v1.873zM12.053 2.285h-3.691v1.896h3.691v-1.896zM14.372 2.285v1.896h3.702v-1.951l-3.702 0.056zM24.072 4.193v-1.907h-3.691v1.896l3.691 0.011zM30.104 2.285h-3.724v1.896h3.724v-1.896zM24.084 29.692v-1.818h-3.702v1.873l3.702-0.056zM12.042 29.692v-1.818h-3.691v1.873l3.691-0.056zM18.074 29.692v-1.818h-3.691v1.884l3.691-0.067zM30.104 27.807h-3.724v1.873h3.724v-1.873zM36.025 4.193v-1.962h-3.624v1.962h3.624zM36.025 27.807h-3.624v1.884h3.635l-0.011-1.884z"></path>
</symbol>
</defs>
</svg>
